<mxfile host="app.diagrams.net" modified="2023-04-16T09:56:29.101Z" agent="Mozilla/5.0 (Macintosh; Intel Mac OS X 10_15_7) AppleWebKit/537.36 (KHTML, like Gecko) Chrome/112.0.0.0 Safari/537.36" etag="WzTy342qzRts8VA6hlNa" version="21.1.8" type="device">
  <diagram name="Page-1" id="T263meb6EwAXRX3dJyaf">
    <mxGraphModel dx="1633" dy="858" grid="1" gridSize="10" guides="1" tooltips="1" connect="1" arrows="1" fold="1" page="1" pageScale="1" pageWidth="827" pageHeight="1169" math="0" shadow="0">
      <root>
        <mxCell id="0" />
        <mxCell id="1" parent="0" />
        <object placeholders="1" c4Name="Driver Application" c4Type="SystemScopeBoundary" c4Application="Driver Application" label="&lt;font style=&quot;font-size: 16px&quot;&gt;&lt;b&gt;&lt;div style=&quot;text-align: left&quot;&gt;%c4Name%&lt;/div&gt;&lt;/b&gt;&lt;/font&gt;&lt;div style=&quot;text-align: left&quot;&gt;[%c4Application%]&lt;/div&gt;" id="WTYbZUXiWfAE7ZMiuDzO-1">
          <mxCell style="rounded=1;fontSize=11;whiteSpace=wrap;html=1;dashed=1;arcSize=20;fillColor=#dae8fc;strokeColor=#6c8ebf;labelBackgroundColor=none;align=left;verticalAlign=bottom;labelBorderColor=none;spacingTop=0;spacing=10;dashPattern=8 4;metaEdit=1;rotatable=0;perimeter=rectanglePerimeter;noLabel=0;labelPadding=0;allowArrows=0;connectable=0;expand=0;recursiveResize=0;editable=1;pointerEvents=0;absoluteArcSize=1;points=[[0.25,0,0],[0.5,0,0],[0.75,0,0],[1,0.25,0],[1,0.5,0],[1,0.75,0],[0.75,1,0],[0.5,1,0],[0.25,1,0],[0,0.75,0],[0,0.5,0],[0,0.25,0]];shadow=0;" vertex="1" parent="1">
            <mxGeometry x="40" y="240" width="320" height="280" as="geometry" />
          </mxCell>
        </object>
        <object placeholders="1" c4Name="Spark Context" c4Type="Component" c4Technology="e.g. Java Service" c4Description="Description of component role/responsibility." label="&lt;font style=&quot;font-size: 16px&quot;&gt;&lt;b&gt;%c4Name%&lt;/b&gt;&lt;/font&gt;&lt;div&gt;[%c4Type%: %c4Technology%]&lt;/div&gt;&lt;br&gt;&lt;div&gt;&lt;font style=&quot;font-size: 11px&quot;&gt;%c4Description%&lt;/font&gt;&lt;/div&gt;" id="WTYbZUXiWfAE7ZMiuDzO-2">
          <mxCell style="rounded=1;whiteSpace=wrap;html=1;labelBackgroundColor=none;fillColor=#63BEF2;fontColor=#ffffff;align=center;arcSize=6;strokeColor=#2086C9;metaEdit=1;resizable=0;points=[[0.25,0,0],[0.5,0,0],[0.75,0,0],[1,0.25,0],[1,0.5,0],[1,0.75,0],[0.75,1,0],[0.5,1,0],[0.25,1,0],[0,0.75,0],[0,0.5,0],[0,0.25,0]];shadow=0;" vertex="1" parent="1">
            <mxGeometry x="80" y="315" width="240" height="120" as="geometry" />
          </mxCell>
        </object>
        <object placeholders="1" c4Name="Cluster Manager" c4Type="Component" c4Technology="e.g. Service" c4Description="Description of component role/responsibility." label="&lt;font style=&quot;font-size: 16px&quot;&gt;&lt;b&gt;%c4Name%&lt;/b&gt;&lt;/font&gt;&lt;div&gt;[%c4Type%: %c4Technology%]&lt;/div&gt;&lt;br&gt;&lt;div&gt;&lt;font style=&quot;font-size: 11px&quot;&gt;%c4Description%&lt;/font&gt;&lt;/div&gt;" id="WTYbZUXiWfAE7ZMiuDzO-3">
          <mxCell style="rounded=1;whiteSpace=wrap;html=1;labelBackgroundColor=none;fillColor=#63BEF2;fontColor=#ffffff;align=center;arcSize=6;strokeColor=#2086C9;metaEdit=1;resizable=0;points=[[0.25,0,0],[0.5,0,0],[0.75,0,0],[1,0.25,0],[1,0.5,0],[1,0.75,0],[0.75,1,0],[0.5,1,0],[0.25,1,0],[0,0.75,0],[0,0.5,0],[0,0.25,0]];shadow=0;" vertex="1" parent="1">
            <mxGeometry x="440" y="315" width="240" height="120" as="geometry" />
          </mxCell>
        </object>
        <object placeholders="1" c4Name="Worker Node" c4Type="SystemScopeBoundary" c4Application="Worker Node" label="&lt;font style=&quot;font-size: 16px&quot;&gt;&lt;b&gt;&lt;div style=&quot;text-align: left&quot;&gt;%c4Name%&lt;/div&gt;&lt;/b&gt;&lt;/font&gt;&lt;div style=&quot;text-align: left&quot;&gt;[%c4Application%]&lt;/div&gt;" id="WTYbZUXiWfAE7ZMiuDzO-4">
          <mxCell style="rounded=1;fontSize=11;whiteSpace=wrap;html=1;dashed=1;arcSize=20;fillColor=#dae8fc;strokeColor=#6c8ebf;labelBackgroundColor=none;align=left;verticalAlign=bottom;labelBorderColor=none;spacingTop=0;spacing=10;dashPattern=8 4;metaEdit=1;rotatable=0;perimeter=rectanglePerimeter;noLabel=0;labelPadding=0;allowArrows=0;connectable=0;expand=0;recursiveResize=0;editable=1;pointerEvents=0;absoluteArcSize=1;points=[[0.25,0,0],[0.5,0,0],[0.75,0,0],[1,0.25,0],[1,0.5,0],[1,0.75,0],[0.75,1,0],[0.5,1,0],[0.25,1,0],[0,0.75,0],[0,0.5,0],[0,0.25,0]];shadow=0;" vertex="1" parent="1">
            <mxGeometry x="760" y="80" width="360" height="280" as="geometry" />
          </mxCell>
        </object>
        <object placeholders="1" c4Name="Worker Node" c4Type="SystemScopeBoundary" c4Application="Worker Node" label="&lt;font style=&quot;font-size: 16px&quot;&gt;&lt;b&gt;&lt;div style=&quot;text-align: left&quot;&gt;%c4Name%&lt;/div&gt;&lt;/b&gt;&lt;/font&gt;&lt;div style=&quot;text-align: left&quot;&gt;[%c4Application%]&lt;/div&gt;" id="WTYbZUXiWfAE7ZMiuDzO-5">
          <mxCell style="rounded=1;fontSize=11;whiteSpace=wrap;html=1;dashed=1;arcSize=20;fillColor=#dae8fc;strokeColor=#6c8ebf;labelBackgroundColor=none;align=left;verticalAlign=bottom;labelBorderColor=none;spacingTop=0;spacing=10;dashPattern=8 4;metaEdit=1;rotatable=0;perimeter=rectanglePerimeter;noLabel=0;labelPadding=0;allowArrows=0;connectable=0;expand=0;recursiveResize=0;editable=1;pointerEvents=0;absoluteArcSize=1;points=[[0.25,0,0],[0.5,0,0],[0.75,0,0],[1,0.25,0],[1,0.5,0],[1,0.75,0],[0.75,1,0],[0.5,1,0],[0.25,1,0],[0,0.75,0],[0,0.5,0],[0,0.25,0]];shadow=0;" vertex="1" parent="1">
            <mxGeometry x="760" y="420" width="360" height="280" as="geometry" />
          </mxCell>
        </object>
        <object placeholders="1" c4Name="Executor" c4Type="SystemScopeBoundary" c4Application="Executor" label="&lt;font style=&quot;font-size: 16px&quot;&gt;&lt;b&gt;&lt;div style=&quot;text-align: left&quot;&gt;%c4Name%&lt;/div&gt;&lt;/b&gt;&lt;/font&gt;&lt;div style=&quot;text-align: left&quot;&gt;[%c4Application%]&lt;/div&gt;" id="WTYbZUXiWfAE7ZMiuDzO-6">
          <mxCell style="rounded=1;fontSize=11;whiteSpace=wrap;html=1;dashed=1;arcSize=20;fillColor=#fff2cc;strokeColor=#d6b656;labelBackgroundColor=none;align=left;verticalAlign=bottom;labelBorderColor=none;spacingTop=0;spacing=10;dashPattern=8 4;metaEdit=1;rotatable=0;perimeter=rectanglePerimeter;noLabel=0;labelPadding=0;allowArrows=0;connectable=0;expand=0;recursiveResize=0;editable=1;pointerEvents=0;absoluteArcSize=1;points=[[0.25,0,0],[0.5,0,0],[0.75,0,0],[1,0.25,0],[1,0.5,0],[1,0.75,0],[0.75,1,0],[0.5,1,0],[0.25,1,0],[0,0.75,0],[0,0.5,0],[0,0.25,0]];shadow=0;" vertex="1" parent="1">
            <mxGeometry x="770" y="90" width="340" height="190" as="geometry" />
          </mxCell>
        </object>
        <object placeholders="1" c4Name="Executor" c4Type="SystemScopeBoundary" c4Application="Executor" label="&lt;font style=&quot;font-size: 16px&quot;&gt;&lt;b&gt;&lt;div style=&quot;text-align: left&quot;&gt;%c4Name%&lt;/div&gt;&lt;/b&gt;&lt;/font&gt;&lt;div style=&quot;text-align: left&quot;&gt;[%c4Application%]&lt;/div&gt;" id="WTYbZUXiWfAE7ZMiuDzO-7">
          <mxCell style="rounded=1;fontSize=11;whiteSpace=wrap;html=1;dashed=1;arcSize=20;fillColor=#fff2cc;strokeColor=#d6b656;labelBackgroundColor=none;align=left;verticalAlign=bottom;labelBorderColor=none;spacingTop=0;spacing=10;dashPattern=8 4;metaEdit=1;rotatable=0;perimeter=rectanglePerimeter;noLabel=0;labelPadding=0;allowArrows=0;connectable=0;expand=0;recursiveResize=0;editable=1;pointerEvents=0;absoluteArcSize=1;points=[[0.25,0,0],[0.5,0,0],[0.75,0,0],[1,0.25,0],[1,0.5,0],[1,0.75,0],[0.75,1,0],[0.5,1,0],[0.25,1,0],[0,0.75,0],[0,0.5,0],[0,0.25,0]];shadow=0;" vertex="1" parent="1">
            <mxGeometry x="770" y="430" width="340" height="190" as="geometry" />
          </mxCell>
        </object>
        <mxCell id="WTYbZUXiWfAE7ZMiuDzO-8" value="Task description" style="html=1;shadow=0;dashed=0;shape=mxgraph.atlassian.issue;issueType=story;issuePriority=blocker;issueStatus=inProgress;verticalAlign=top;align=left;whiteSpace=wrap;overflow=hidden;spacingTop=25;strokeColor=#A8ADB0;fillColor=#EEEEEE;fontSize=12;backgroundOutline=1;" vertex="1" parent="1">
          <mxGeometry x="790" y="110" width="200" height="50" as="geometry" />
        </mxCell>
        <mxCell id="WTYbZUXiWfAE7ZMiuDzO-9" value="1000" style="strokeColor=none;fillColor=none;part=1;resizable=0;align=left;autosize=1;points=[];deletable=0;connectable=0;shadow=0;" vertex="1" parent="WTYbZUXiWfAE7ZMiuDzO-8">
          <mxGeometry width="50" height="30" relative="1" as="geometry">
            <mxPoint x="20" y="-5" as="offset" />
          </mxGeometry>
        </mxCell>
        <mxCell id="WTYbZUXiWfAE7ZMiuDzO-10" value="Task description" style="html=1;shadow=0;dashed=0;shape=mxgraph.atlassian.issue;issueType=story;issuePriority=blocker;issueStatus=inProgress;verticalAlign=top;align=left;whiteSpace=wrap;overflow=hidden;spacingTop=25;strokeColor=#A8ADB0;fillColor=#EEEEEE;fontSize=12;backgroundOutline=1;" vertex="1" parent="1">
          <mxGeometry x="790" y="170" width="200" height="50" as="geometry" />
        </mxCell>
        <mxCell id="WTYbZUXiWfAE7ZMiuDzO-11" value="1001" style="strokeColor=none;fillColor=none;part=1;resizable=0;align=left;autosize=1;points=[];deletable=0;connectable=0;shadow=0;" vertex="1" parent="WTYbZUXiWfAE7ZMiuDzO-10">
          <mxGeometry width="50" height="30" relative="1" as="geometry">
            <mxPoint x="20" y="-5" as="offset" />
          </mxGeometry>
        </mxCell>
        <mxCell id="WTYbZUXiWfAE7ZMiuDzO-12" value="Task description" style="html=1;shadow=0;dashed=0;shape=mxgraph.atlassian.issue;issueType=story;issuePriority=blocker;issueStatus=inProgress;verticalAlign=top;align=left;whiteSpace=wrap;overflow=hidden;spacingTop=25;strokeColor=#A8ADB0;fillColor=#EEEEEE;fontSize=12;backgroundOutline=1;" vertex="1" parent="1">
          <mxGeometry x="790" y="440" width="200" height="50" as="geometry" />
        </mxCell>
        <mxCell id="WTYbZUXiWfAE7ZMiuDzO-13" value="1003" style="strokeColor=none;fillColor=none;part=1;resizable=0;align=left;autosize=1;points=[];deletable=0;connectable=0;shadow=0;" vertex="1" parent="WTYbZUXiWfAE7ZMiuDzO-12">
          <mxGeometry width="50" height="30" relative="1" as="geometry">
            <mxPoint x="20" y="-5" as="offset" />
          </mxGeometry>
        </mxCell>
        <mxCell id="WTYbZUXiWfAE7ZMiuDzO-14" value="" style="outlineConnect=0;fontColor=#232F3E;gradientColor=none;fillColor=#2E27AD;strokeColor=none;dashed=0;verticalLabelPosition=bottom;verticalAlign=top;align=center;html=1;fontSize=12;fontStyle=0;aspect=fixed;pointerEvents=1;shape=mxgraph.aws4.cache_node;shadow=0;" vertex="1" parent="1">
          <mxGeometry x="1020" y="110" width="78" height="78" as="geometry" />
        </mxCell>
        <mxCell id="WTYbZUXiWfAE7ZMiuDzO-15" value="" style="outlineConnect=0;fontColor=#232F3E;gradientColor=none;fillColor=#2E27AD;strokeColor=none;dashed=0;verticalLabelPosition=bottom;verticalAlign=top;align=center;html=1;fontSize=12;fontStyle=0;aspect=fixed;pointerEvents=1;shape=mxgraph.aws4.cache_node;shadow=0;" vertex="1" parent="1">
          <mxGeometry x="1020" y="440" width="78" height="78" as="geometry" />
        </mxCell>
        <mxCell id="WTYbZUXiWfAE7ZMiuDzO-17" value="" style="endArrow=classic;startArrow=classic;html=1;rounded=0;exitX=1;exitY=0.5;exitDx=0;exitDy=0;exitPerimeter=0;entryX=0;entryY=0.5;entryDx=0;entryDy=0;entryPerimeter=0;shadow=0;" edge="1" parent="1" source="WTYbZUXiWfAE7ZMiuDzO-2" target="WTYbZUXiWfAE7ZMiuDzO-3">
          <mxGeometry width="50" height="50" relative="1" as="geometry">
            <mxPoint x="430" y="220" as="sourcePoint" />
            <mxPoint x="480" y="170" as="targetPoint" />
          </mxGeometry>
        </mxCell>
        <mxCell id="WTYbZUXiWfAE7ZMiuDzO-18" value="" style="endArrow=classic;startArrow=classic;html=1;rounded=0;exitX=1;exitY=0.5;exitDx=0;exitDy=0;exitPerimeter=0;shadow=0;" edge="1" parent="1" source="WTYbZUXiWfAE7ZMiuDzO-3">
          <mxGeometry width="50" height="50" relative="1" as="geometry">
            <mxPoint x="620" y="210" as="sourcePoint" />
            <mxPoint x="770" y="180" as="targetPoint" />
          </mxGeometry>
        </mxCell>
        <mxCell id="WTYbZUXiWfAE7ZMiuDzO-19" value="" style="endArrow=classic;startArrow=classic;html=1;rounded=0;exitX=1;exitY=0.5;exitDx=0;exitDy=0;exitPerimeter=0;shadow=0;" edge="1" parent="1" source="WTYbZUXiWfAE7ZMiuDzO-3">
          <mxGeometry width="50" height="50" relative="1" as="geometry">
            <mxPoint x="690" y="385" as="sourcePoint" />
            <mxPoint x="770" y="540" as="targetPoint" />
          </mxGeometry>
        </mxCell>
        <mxCell id="WTYbZUXiWfAE7ZMiuDzO-20" value="" style="endArrow=classic;startArrow=classic;html=1;rounded=0;exitX=1;exitY=0.25;exitDx=0;exitDy=0;exitPerimeter=0;shadow=0;" edge="1" parent="1" source="WTYbZUXiWfAE7ZMiuDzO-2">
          <mxGeometry width="50" height="50" relative="1" as="geometry">
            <mxPoint x="690" y="385" as="sourcePoint" />
            <mxPoint x="770" y="180" as="targetPoint" />
          </mxGeometry>
        </mxCell>
        <mxCell id="WTYbZUXiWfAE7ZMiuDzO-21" value="" style="endArrow=classic;startArrow=classic;html=1;rounded=0;exitX=1;exitY=0.75;exitDx=0;exitDy=0;exitPerimeter=0;shadow=0;" edge="1" parent="1" source="WTYbZUXiWfAE7ZMiuDzO-2">
          <mxGeometry width="50" height="50" relative="1" as="geometry">
            <mxPoint x="330" y="355" as="sourcePoint" />
            <mxPoint x="770" y="540" as="targetPoint" />
          </mxGeometry>
        </mxCell>
      </root>
    </mxGraphModel>
  </diagram>
</mxfile>
